<?xml version="1.0" standalone="no"?>
<!DOCTYPE svg PUBLIC "-//W3C//DTD SVG 20010904//EN"
 "http://www.w3.org/TR/2001/REC-SVG-20010904/DTD/svg10.dtd">
<svg version="1.0" xmlns="http://www.w3.org/2000/svg"
 width="318.000000pt" height="318.000000pt" viewBox="0 0 318.000000 318.000000"
 preserveAspectRatio="xMidYMid meet">
<metadata>
Created by potrace 1.14, written by Peter Selinger 2001-2017
</metadata>
<g transform="translate(0.000000,318.000000) scale(0.100000,-0.100000)"
fill="#000000" stroke="none">
<path d="M855 2982 c25 -23 225 -199 330 -291 17 -14 66 -57 110 -96 44 -38
95 -83 114 -100 19 -16 42 -37 51 -45 9 -8 49 -44 90 -80 83 -72 137 -120 154
-135 6 -6 45 -39 86 -75 41 -36 77 -67 80 -70 3 -3 41 -37 85 -75 44 -39 82
-72 85 -75 3 -3 35 -32 73 -64 75 -65 87 -101 45 -130 -34 -24 -49 -20 -98 27
-25 23 -81 74 -125 112 -44 39 -85 75 -91 80 -10 9 -105 93 -158 138 -12 10
-37 33 -56 50 -19 18 -69 61 -110 97 -41 36 -80 70 -86 75 -10 9 -79 70 -209
185 -85 75 -185 162 -285 249 -52 46 -111 98 -132 117 -20 19 -40 34 -45 34
-10 0 -12 -1353 -2 -1360 6 -4 129 -5 149 -1 3 1 6 220 5 487 0 267 3 490 6
495 3 5 14 1 25 -8 10 -10 78 -70 149 -133 72 -63 135 -119 141 -125 6 -5 42
-37 79 -70 38 -33 73 -65 79 -70 6 -6 85 -75 176 -155 167 -147 215 -189 254
-225 12 -11 51 -45 86 -75 34 -30 75 -65 89 -78 39 -35 69 -44 144 -46 144 -3
227 80 227 225 0 83 -24 137 -82 182 -18 14 -47 38 -64 54 -17 15 -59 53 -94
83 -35 30 -68 60 -74 65 -11 11 -219 194 -341 300 -37 33 -76 67 -85 75 -9 8
-46 40 -80 70 -35 30 -68 60 -74 65 -6 6 -47 42 -91 80 -44 39 -88 78 -99 88
-19 16 6 17 532 17 l552 0 0 80 0 80 -772 0 -773 0 30 -28z"/>
<path d="M2115 2646 c-71 -43 -100 -124 -71 -201 21 -54 52 -83 107 -99 56
-17 94 -11 141 19 48 32 72 78 72 140 1 129 -138 207 -249 141z"/>
<path d="M2079 1228 c-4 -59 -3 -621 1 -626 3 -4 24 -7 48 -8 29 -1 42 3 42
12 1 8 1 124 1 259 0 135 0 274 -1 310 l0 65 -45 0 c-29 0 -45 -4 -46 -12z"/>
<path d="M1299 1188 c0 -7 -1 -40 -2 -73 l-2 -60 -62 -3 -63 -3 0 -39 0 -40
64 0 64 0 0 -137 c0 -76 1 -148 1 -160 1 -12 11 -34 24 -48 20 -24 30 -27 105
-29 l82 -2 0 33 c0 18 0 36 0 40 0 4 -20 8 -44 9 -77 2 -74 -4 -74 153 l0 141
69 0 69 0 0 40 0 40 -69 0 -70 0 1 48 c0 108 3 102 -47 102 -29 0 -45 -4 -46
-12z"/>
<path d="M887 1055 c-59 -15 -112 -56 -140 -108 -28 -54 -31 -193 -4 -244 56
-105 201 -150 313 -97 30 14 94 78 94 94 0 3 -15 14 -34 24 l-34 18 -37 -36
c-35 -36 -52 -41 -110 -37 -58 5 -115 59 -115 109 0 19 6 20 163 18 89 -2 167
-1 174 1 15 6 9 90 -12 139 -40 97 -148 147 -258 119z m118 -89 c30 -13 65
-58 65 -86 0 -6 -44 -10 -125 -10 -84 0 -125 4 -125 11 0 23 34 67 64 82 39
20 78 21 121 3z"/>
<path d="M1732 1058 c-56 -9 -106 -41 -131 -82 -26 -42 -26 -45 2 -55 61 -23
64 -23 76 7 16 38 45 54 98 54 50 0 88 -27 95 -67 9 -42 -4 -48 -104 -50 -110
-1 -160 -21 -189 -74 -21 -39 -18 -107 6 -144 30 -47 123 -74 199 -60 15 3 43
21 62 39 18 19 35 34 38 34 2 0 7 -11 10 -24 8 -33 62 -49 129 -37 4 0 7 19 7
40 0 33 -3 39 -18 36 -40 -7 -44 8 -46 142 -1 109 -5 134 -22 163 -36 62 -122
94 -212 78z m138 -297 c0 -40 -34 -79 -82 -92 -70 -18 -128 9 -128 62 0 44 31
59 127 59 l83 0 0 -29z"/>
<path d="M2445 1064 c-6 -2 -29 -8 -52 -14 -180 -46 -201 -353 -30 -442 53
-28 165 -30 214 -5 37 20 93 76 93 95 0 7 -15 19 -33 28 -33 16 -33 16 -69
-20 -35 -35 -62 -43 -123 -36 -44 5 -105 73 -105 118 0 4 78 8 173 7 l172 0 3
24 c11 78 -34 174 -100 211 -35 20 -121 40 -143 34z m84 -99 c34 -17 61 -51
61 -77 0 -16 -12 -18 -125 -18 -69 0 -125 2 -125 5 0 4 7 19 15 36 31 59 115
85 174 54z"/>
<path d="M165 1046 c-17 -7 -36 -20 -44 -29 -19 -24 -31 -21 -31 8 0 23 -4 25
-45 25 l-45 0 2 -227 3 -227 38 1 c20 0 41 1 45 2 5 1 8 69 7 152 -1 128 2
155 17 180 20 33 57 51 91 45 12 -3 25 -5 29 -5 4 -1 16 -10 27 -22 17 -18 19
-37 19 -177 1 -86 1 -162 2 -167 0 -9 28 -11 80 -6 13 1 15 26 15 161 0 159 1
160 27 186 35 36 98 38 130 6 22 -21 23 -31 24 -183 1 -88 5 -163 9 -167 4 -4
24 -7 46 -7 l39 0 0 181 c0 172 -1 183 -23 215 -54 80 -177 90 -241 18 l-27
-30 -20 25 c-11 15 -29 31 -39 36 -31 17 -103 20 -135 6z"/>
<path d="M2700 1044 c0 -3 36 -52 81 -110 49 -64 77 -109 73 -117 -4 -6 -40
-55 -79 -107 -39 -52 -74 -99 -77 -105 -5 -8 50 -12 98 -6 6 0 37 37 68 81 32
44 62 80 67 80 4 0 34 -35 65 -77 32 -43 61 -81 66 -84 7 -5 68 -5 101 0 5 0
-13 29 -40 64 -27 34 -65 85 -86 113 l-37 51 86 112 85 111 -58 0 -58 -1 -58
-79 c-31 -44 -61 -80 -67 -80 -5 0 -35 36 -66 80 l-58 80 -53 0 c-29 0 -53 -2
-53 -6z"/>
<path d="M1009 327 c-4 -36 -5 -134 -2 -143 5 -15 105 -12 111 4 2 8 -10 12
-40 12 l-44 0 1 65 c1 45 -2 66 -12 69 -7 3 -14 0 -14 -7z"/>
<path d="M1239 331 c0 -3 -1 -40 -2 -81 l-1 -75 59 0 c70 0 81 18 16 25 -32 4
-45 10 -47 23 -2 17 20 22 69 18 9 -1 17 4 17 13 0 12 -10 16 -38 16 -43 0
-53 6 -45 25 3 9 20 14 44 13 40 0 58 7 46 18 -8 9 -117 13 -118 5z"/>
<path d="M1525 330 c-29 -11 -44 -32 -51 -68 -5 -26 -1 -36 24 -62 51 -51 122
-37 122 25 0 35 -15 46 -52 37 -24 -6 -23 -22 1 -22 24 0 35 -26 15 -34 -31
-12 -54 -5 -70 19 -32 48 22 104 74 76 18 -10 32 -6 32 9 0 8 -47 30 -63 29
-7 0 -21 -4 -32 -9z"/>
<path d="M1771 262 c-21 -51 -28 -79 -21 -86 7 -7 14 -4 23 9 16 21 75 24 88
4 10 -16 42 -21 36 -6 -73 183 -80 188 -126 79z m64 -13 c6 -24 4 -26 -18 -22
-23 4 -24 7 -14 34 12 32 22 28 32 -12z"/>
<path d="M2019 340 c-1 -3 -2 -40 -3 -83 -1 -85 0 -87 64 -84 52 2 58 21 7 27
l-42 5 0 57 c0 32 -6 63 -13 70 -6 6 -13 10 -13 8z"/>
</g>
</svg>
